<svg preserveAspectRatio="none" overflow="visible" style="display: block;" width="401.703" height="576.291" viewBox="0 0 401.703 576.291" fill="none" xmlns="http://www.w3.org/2000/svg">
<path id="Vector" opacity="0.06" d="M98.939 281.307C66.7886 324.954 16.6105 358.249 3.21166 410.784C-6.68595 449.533 7.04958 492.204 34.0155 521.728C60.9983 551.253 99.7469 568.405 139.337 574.128C219.141 585.675 303.994 550.243 351.867 485.353C381.273 445.493 396.81 396.426 400.681 347.039C404.536 297.652 397.163 247.894 383.966 200.157C372.167 157.436 355.435 115.506 328.957 79.9887C302.48 44.455 265.498 15.6038 222.575 4.61211C189.701 -3.80422 153.224 -0.875347 122.926 14.8295C102.07 25.6361 97.6261 28.6491 109.089 48.3265C117.219 62.2808 123.834 76.9252 128.615 92.3607C148.107 155.298 138.311 227.864 98.939 281.307Z" fill="url(#paint0_linear_0_91)"/>
<defs>
<linearGradient id="paint0_linear_0_91" x1="0.00016279" y1="288.133" x2="401.704" y2="288.133" gradientUnits="userSpaceOnUse">
<stop stop-color="#90DEC6"/>
<stop offset="0.2294" stop-color="#66BFE6"/>
<stop offset="0.711" stop-color="#298BD0"/>
<stop offset="1" stop-color="#28C49E"/>
</linearGradient>
</defs>
</svg>
